<?xml version="1.0" ?><svg baseProfile="tiny" height="64px" version="1.2" viewBox="0 0 64 64" width="64px" xml:space="preserve" xmlns="http://www.w3.org/2000/svg" xmlns:xlink="http://www.w3.org/1999/xlink"><g id="box"><rect fill="none" height="64" width="64"/></g><g id="icon"><g><path d="M50.9462,20.5828H25.0657v-1.6777c0-1.267-1.0294-2.2982-2.3015-2.2982h-4.2629    c-1.2705,0-2.3018,1.0312-2.3018,2.2982v1.6777h-3.1456c-2.4961,0-4.5192,2.0232-4.5192,4.5191V42.874    c0,2.4958,2.0231,4.519,4.5192,4.519h37.8923c2.496,0,4.5192-2.0232,4.5192-4.519V25.1019    C55.4653,22.606,53.4421,20.5828,50.9462,20.5828z M22.7263,29.9768c0,0.8475-0.6876,1.5369-1.5386,1.5369h-6.5114    c-0.8491,0-1.5383-0.6893-1.5383-1.5369V26.551c0-0.8473,0.6892-1.5366,1.5383-1.5366h6.5114c0.851,0,1.5386,0.6893,1.5386,1.5366    V29.9768z M39.4532,43.4399c-5.2181,0-9.4634-4.2451-9.4634-9.4634c0-5.217,4.2452-9.4612,9.4634-9.4612    c5.2172,0,9.4617,4.2443,9.4617,9.4612C48.9149,39.1948,44.6704,43.4399,39.4532,43.4399z M39.4532,27.2734    c-3.6971,0-6.7052,3.0073-6.7052,6.7031c0,3.6973,3.0081,6.7051,6.7052,6.7051c3.6964,0,6.7036-3.0078,6.7036-6.7051    C46.1569,30.2808,43.1497,27.2734,39.4532,27.2734z" fill="#565D64"/></g></g></svg>