<?xml version="1.0" ?><!DOCTYPE svg  PUBLIC '-//W3C//DTD SVG 1.1//EN'  'http://www.w3.org/Graphics/SVG/1.1/DTD/svg11.dtd'><svg enable-background="new 0 0 400 400" height="400px" id="Layer_1" version="1.1" viewBox="0 0 400 400" width="400px" xml:space="preserve" xmlns="http://www.w3.org/2000/svg" xmlns:xlink="http://www.w3.org/1999/xlink"><circle cx="200.004" cy="201" fill="#0096D8" r="200"/><g><path d="M274.914,135.378c-10.935-25.976-38.281-43.747-69.721-43.747c-51.953,0-72.459,43.747-75.194,66.988   l41.014,5.468c0-5.468,5.47-31.444,34.18-31.444c17.772,0,27.338,9.571,31.439,19.14c1.37,2.734,4.102,12.304-2.73,19.14   c-2.733,2.733-6.835,5.47-12.304,8.203c-15.039,8.203-37.105,39.86-37.105,80.874h41.014c0-13.67,4.294-38.494,16.598-45.33   c6.833-4.102,15.036-8.203,21.875-15.037C280.385,183.228,284.485,158.62,274.914,135.378z" fill="#FCFCFC"/><path d="M205.192,280.525c-11.881,0-21.502,9.622-21.502,21.501c0,11.881,9.621,21.501,21.502,21.501   c11.88,0,21.498-9.62,21.498-21.501C226.69,290.147,217.072,280.525,205.192,280.525z" fill="#FCFCFC"/></g></svg>