<?xml version="1.0" ?><svg baseProfile="tiny" height="64px" version="1.2" viewBox="0 0 64 64" width="64px" xml:space="preserve" xmlns="http://www.w3.org/2000/svg" xmlns:xlink="http://www.w3.org/1999/xlink"><g id="_x36_4px_boxes"><rect fill="none" height="64" width="64"/></g><g id="Production"><g><path d="M41.927,24.0637l-2.8948-7.9504c-0.7949-2.1715-3.1821-3.2747-5.3364-2.4857L7.6885,23.0925    c-2.1946,0.7958-3.2729,3.2311-2.4858,5.3327v0.0013l5.4688,15.0205c0.7734,2.1368,3.1367,3.2717,5.3311,2.4882l4.792-1.7451    l-0.0034-6.4666l-5.3867,1.9603c-1.2412,0.4641-1.9543-1.4356-0.6882-1.9001l6.075-2.2102c0-0.189-0.0049-5.0607,0.0049-5.2495    c0.082-3.4684,2.9199-6.2565,6.4128-6.2604H41.927z M17.1338,32.7791l-3.03,1.1019c-0.8875,0.3096-1.8323-0.1455-2.1321-0.9943    l-0.738-2.0283c-0.3259-0.8641,0.1294-1.8277,0.9929-2.1372l3.0215-1.0992c0.9106-0.3273,1.8335,0.161,2.1396,0.9915l0.738,2.0309    C18.4333,31.4683,18.0244,32.4391,17.1338,32.7791z M54.8896,26.3214H27.2114c-2.3003,0-4.1606,1.8617-4.1631,4.1566    c0.0044,14.939,0,16.0402,0,16.0402c0.0012,0.0117,0.0012,0.0206,0.0012,0.0295c0.0437,2.2666,1.8953,4.0784,4.1619,4.0784    h27.6782c2.301,0,4.1626-1.863,4.1626-4.1642V30.4817C59.0498,28.183,57.1907,26.3214,54.8896,26.3214z M56.1863,46.4619    c0,0.72-0.5754,1.2992-1.2966,1.2992H27.2114c-0.6895-0.0026-1.2483-0.5342-1.293-1.2005c0-5.3141,0.0005-3.1864-0.0024-9.1164    h30.2703V46.4619z M56.1863,32.3498H25.916v-1.8643c0-0.7214,0.5815-1.3044,1.2954-1.3006h27.6782    c0.7173,0,1.2966,0.5792,1.2966,1.2968V32.3498z M29.533,42.0939h14.4641c0.0015,0,0.0027,0,0.0027,0    c1.3298,0,1.3411-2.0205-0.0027-2.0205H29.533C28.167,40.064,28.2478,42.0939,29.533,42.0939z" fill="#565D64"/></g></g></svg>