<?xml version="1.0" ?><svg baseProfile="tiny" height="64px" version="1.2" viewBox="0 0 64 64" width="64px" xml:space="preserve" xmlns="http://www.w3.org/2000/svg" xmlns:xlink="http://www.w3.org/1999/xlink"><g id="_x36_4px_boxes"><rect fill="none" height="64" width="64"/></g><g id="Production"><g><path d="M28.4543,15.523c2.61,0,4.7303-2.1203,4.7303-4.7328c0-2.6114-2.1202-4.7328-4.7303-4.7328    c-2.6152,0-4.7355,2.1214-4.7355,4.7328C23.7189,13.4027,25.8392,15.523,28.4543,15.523z M46.0942,36.2359    c-0.7071-1.4948-2.0142-2.2277-2.8697-2.4809c-1.4308-0.4269-6.1369-0.1982-7.8838-0.1982c-1.752,0-2.5959,0.0947-3.6088-0.9182    c-0.4847-0.4871-0.7378-1.9335-0.9067-3.6906c4.7546,0.275,12.2524,0.518,12.2242-0.6817    c-0.0281-1.2812-7.5336-3.05-12.5388-3.8173c-0.2488-3.8533-0.6271-7.6112-3.8172-7.5973c-2.284,0.009-3.706,1.7251-4.0667,4.6984    c-0.6509,5.3812,0.9898,14.4108,2.6548,16.2048c1.6638,1.7903,4.5576,1.9656,4.5576,1.9656    c1.8647,0.1587,7.2598,0.064,11.4658,0.0742c0,0,8.0706,15.3087,10.1666,13.7422C53.5715,51.9691,47.0649,38.3012,46.0942,36.2359    z M29.3456,54.1328c-7.4119-0.0139-13.4109-6.0103-13.4236-13.4236c-0.0013-3.9527,1.7161-7.4976,4.4349-9.9555    c-0.2238-1.4474-0.3849-2.954-0.4681-4.4398c-4.6829,3.0793-7.7725,8.3722-7.7752,14.3953    c0,9.5184,7.7139,17.2334,17.2321,17.2334c6.2162,0,11.6461-3.3032,14.6782-8.237c-0.6049-0.9285-1.1451-1.7695-2.3223-3.7661    C39.6631,50.7504,34.9008,54.1227,29.3456,54.1328z" fill="#565D64"/></g></g></svg>